<svg fill="none" viewBox="0 0 20 20" xmlns="http://www.w3.org/2000/svg"><path d="M11 10c.104 0 .205.008.305.023-.39.279-.743.608-1.048.977H4a1 1 0 0 0-1 1v1.5C3 14.907 4.579 16 7.5 16a9.35 9.35 0 0 0 1.67-.139c.083.329.197.645.336.947A9.917 9.917 0 0 1 7.5 17C4.088 17 2 15.554 2 13.5V12a2 2 0 0 1 2-2h7ZM17 6.5a2.5 2.5 0 1 1-5 0 2.5 2.5 0 0 1 5 0ZM14.5 5a1.5 1.5 0 1 0 0 3 1.5 1.5 0 0 0 0-3ZM7.5 2a3.5 3.5 0 1 1 0 7 3.5 3.5 0 0 1 0-7Zm0 1a2.5 2.5 0 1 0 0 5 2.5 2.5 0 0 0 0-5Z" fill="#ffffff" class="fill-212121"></path><path d="M19 14.5a4.5 4.5 0 1 1-9 0 4.5 4.5 0 0 1 9 0Zm-4-2a.5.5 0 0 0-1 0V14h-1.5a.5.5 0 0 0 0 1H14v1.5a.5.5 0 0 0 1 0V15h1.5a.5.5 0 0 0 0-1H15v-1.5Z" fill="#ffffff" class="fill-212121"></path></svg>