<?xml version="1.0" ?><svg fill="none" height="28" viewBox="0 0 28 28" width="28" xmlns="http://www.w3.org/2000/svg"><path d="M25.0019 13.0144C25.5533 13.0145 26.0002 13.4734 26.0002 14.0394C26.0002 14.6056 25.5531 15.0646 25.0016 15.0645L5.43869 15.0619L14.3573 24.2181C14.7478 24.619 14.7478 25.269 14.3573 25.6699L14.3287 25.6993C13.9382 26.1002 13.305 26.1002 12.9145 25.6993L2.30925 14.8117C2.19086 14.6901 2.10842 14.5459 2.06182 14.3924C2.02184 14.2816 2 14.1617 2 14.0366C2 13.9252 2.0173 13.818 2.04928 13.7176C2.08641 13.525 2.17766 13.3413 2.32305 13.192L12.9319 2.3007C13.3224 1.89977 13.9556 1.89977 14.3461 2.3007L14.3747 2.33009C14.7652 2.73099 14.7652 3.38103 14.3747 3.78197L5.38426 13.0118L25.0019 13.0144Z" fill="black"/></svg>